{
	"asset":{
		"generator":"Khronos glTF Blender I/O v3.6.28",
		"version":"2.0"
	},
	"scene":0,
	"scenes":[
		{
			"extras":{
				"aad_props":{},
				"b_settings":1,
				"b_joystick":1,
				"b_cubemap":1,
				"b_show_env_sky":0,
				"b_cubemap_background":1,
				"b_cast_shadows":1,
				"b_use_default_lights":1,
				"b_renderer":1,
				"b_aa":1,
				"b_physicallyCorrectLights":1,
				"b_player":0,
				"b_raycast":1,
				"b_interactive":0,
				"b_export":1,
				"export_path":"/Users/gregoryvershbow/Documents/a-frame/class1/",
				"s_output":"exporting..."
			},
			"name":"Scene",
			"nodes":[
				0
			]
		}
	],
	"nodes":[
		{
			"extras":{
				"conform_object":{},
				"AFRAME_ANIMATION":"property: rotation; to: 0 360 0; loop: true; dur: 10000"
			},
			"mesh":0,
			"name":"BodyBaseModel",
			"scale":[
				2.0664920806884766,
				2.0664920806884766,
				2.0664920806884766
			]
		}
	],
	"materials":[
		{
			"doubleSided":true,
			"name":"Material.003",
			"pbrMetallicRoughness":{
				"baseColorFactor":[
					0.800000011920929,
					0.800000011920929,
					0.800000011920929,
					1
				],
				"roughnessFactor":0.2900552451610565
			}
		}
	],
	"meshes":[
		{
			"name":"BodyBaseModel",
			"primitives":[
				{
					"attributes":{
						"POSITION":0,
						"NORMAL":1,
						"TEXCOORD_0":2,
						"TANGENT":3
					},
					"indices":4,
					"material":0
				}
			]
		}
	],
	"accessors":[
		{
			"bufferView":0,
			"componentType":5126,
			"count":9525,
			"max":[
				0.17254690825939178,
				1.3425959348678589,
				0.6144363284111023
			],
			"min":[
				-0.23240384459495544,
				-1.1240861415863037,
				-0.6145022511482239
			],
			"type":"VEC3"
		},
		{
			"bufferView":1,
			"componentType":5126,
			"count":9525,
			"type":"VEC3"
		},
		{
			"bufferView":2,
			"componentType":5126,
			"count":9525,
			"type":"VEC2"
		},
		{
			"bufferView":3,
			"componentType":5126,
			"count":9525,
			"type":"VEC4"
		},
		{
			"bufferView":4,
			"componentType":5123,
			"count":15408,
			"type":"SCALAR"
		}
	],
	"bufferViews":[
		{
			"buffer":0,
			"byteLength":114300,
			"byteOffset":0,
			"target":34962
		},
		{
			"buffer":0,
			"byteLength":114300,
			"byteOffset":114300,
			"target":34962
		},
		{
			"buffer":0,
			"byteLength":76200,
			"byteOffset":228600,
			"target":34962
		},
		{
			"buffer":0,
			"byteLength":152400,
			"byteOffset":304800,
			"target":34962
		},
		{
			"buffer":0,
			"byteLength":30816,
			"byteOffset":457200,
			"target":34963
		}
	],
	"buffers":[
		{
			"byteLength":488016,
			"uri":"data:application/octet-stream;base64,"
		}
	]
}
