{
	"asset":{
		"generator":"Khronos glTF Blender I/O v3.6.28",
		"version":"2.0"
	},
	"scene":0,
	"scenes":[
		{
			"extras":{
				"aad_props":{},
				"b_settings":1,
				"b_joystick":1,
				"b_cubemap":1,
				"b_show_env_sky":0,
				"b_cubemap_background":1,
				"b_cast_shadows":1,
				"b_use_default_lights":1,
				"b_renderer":1,
				"b_aa":1,
				"b_physicallyCorrectLights":1,
				"b_player":0,
				"b_raycast":1,
				"b_interactive":0,
				"b_export":1,
				"export_path":"/Users/gregoryvershbow/Documents/a-frame/class1/",
				"s_output":"exporting..."
			},
			"name":"Scene",
			"nodes":[
				0
			]
		}
	],
	"nodes":[
		{
			"extras":{
				"conform_object":{},
				"AFRAME_ANIMATION":"property: rotation; to: 0 360 0; loop: true; dur: 10000"
			},
			"mesh":0,
			"name":"Low_Animal"
		}
	],
	"materials":[
		{
			"doubleSided":true,
			"name":"Material.001",
			"pbrMetallicRoughness":{
				"baseColorFactor":[
					0.14414334297180176,
					0.02306097373366356,
					0.01323525607585907,
					1
				],
				"metallicFactor":0,
				"roughnessFactor":0.5
			}
		}
	],
	"meshes":[
		{
			"name":"Plane.001",
			"primitives":[
				{
					"attributes":{
						"POSITION":0,
						"NORMAL":1,
						"TEXCOORD_0":2,
						"TANGENT":3
					},
					"indices":4,
					"material":0
				}
			]
		}
	],
	"accessors":[
		{
			"bufferView":0,
			"componentType":5126,
			"count":457,
			"max":[
				0.2937646210193634,
				1.0051987171173096,
				1.3224111795425415
			],
			"min":[
				-0.2538614273071289,
				-1.1199270486831665,
				-1.2220141887664795
			],
			"type":"VEC3"
		},
		{
			"bufferView":1,
			"componentType":5126,
			"count":457,
			"type":"VEC3"
		},
		{
			"bufferView":2,
			"componentType":5126,
			"count":457,
			"type":"VEC2"
		},
		{
			"bufferView":3,
			"componentType":5126,
			"count":457,
			"type":"VEC4"
		},
		{
			"bufferView":4,
			"componentType":5123,
			"count":729,
			"type":"SCALAR"
		}
	],
	"bufferViews":[
		{
			"buffer":0,
			"byteLength":5484,
			"byteOffset":0,
			"target":34962
		},
		{
			"buffer":0,
			"byteLength":5484,
			"byteOffset":5484,
			"target":34962
		},
		{
			"buffer":0,
			"byteLength":3656,
			"byteOffset":10968,
			"target":34962
		},
		{
			"buffer":0,
			"byteLength":7312,
			"byteOffset":14624,
			"target":34962
		},
		{
			"buffer":0,
			"byteLength":1458,
			"byteOffset":21936,
			"target":34963
		}
	],
	"buffers":[
		{
			"byteLength":23396,
			"uri":"data:application/octet-stream;base64,"
		}
	]
}
