{
	"asset":{
		"generator":"Khronos glTF Blender I/O v3.6.28",
		"version":"2.0"
	},
	"scene":0,
	"scenes":[
		{
			"extras":{
				"aad_props":{},
				"b_settings":1,
				"b_joystick":1,
				"b_cubemap":1,
				"b_show_env_sky":0,
				"b_cubemap_background":1,
				"b_cast_shadows":1,
				"b_use_default_lights":1,
				"b_renderer":1,
				"b_aa":1,
				"b_physicallyCorrectLights":1,
				"b_player":0,
				"b_raycast":1,
				"b_interactive":0,
				"b_export":1,
				"export_path":"/Users/gregoryvershbow/Documents/a-frame/class1/",
				"s_output":"exporting..."
			},
			"name":"Scene",
			"nodes":[
				0
			]
		}
	],
	"nodes":[
		{
			"extras":{
				"conform_object":{},
				"AFRAME_ANIMATION":"property: rotation; to: 0 360 0; loop: true; dur: 10000"
			},
			"mesh":0,
			"name":"Low_Animal.003"
		}
	],
	"materials":[
		{
			"doubleSided":true,
			"name":"Material.005",
			"pbrMetallicRoughness":{
				"baseColorFactor":[
					0.8001260757446289,
					0.07534678280353546,
					0.15730872750282288,
					1
				],
				"roughnessFactor":0.5
			}
		}
	],
	"meshes":[
		{
			"name":"Plane.003",
			"primitives":[
				{
					"attributes":{
						"POSITION":0,
						"NORMAL":1,
						"TEXCOORD_0":2,
						"TANGENT":3
					},
					"indices":4,
					"material":0
				}
			]
		}
	],
	"accessors":[
		{
			"bufferView":0,
			"componentType":5126,
			"count":1805,
			"max":[
				0.4898683428764343,
				3.308953046798706,
				2.5320446491241455
			],
			"min":[
				-0.48986726999282837,
				-2.02215838432312,
				-3.380875825881958
			],
			"type":"VEC3"
		},
		{
			"bufferView":1,
			"componentType":5126,
			"count":1805,
			"type":"VEC3"
		},
		{
			"bufferView":2,
			"componentType":5126,
			"count":1805,
			"type":"VEC2"
		},
		{
			"bufferView":3,
			"componentType":5126,
			"count":1805,
			"type":"VEC4"
		},
		{
			"bufferView":4,
			"componentType":5123,
			"count":2796,
			"type":"SCALAR"
		}
	],
	"bufferViews":[
		{
			"buffer":0,
			"byteLength":21660,
			"byteOffset":0,
			"target":34962
		},
		{
			"buffer":0,
			"byteLength":21660,
			"byteOffset":21660,
			"target":34962
		},
		{
			"buffer":0,
			"byteLength":14440,
			"byteOffset":43320,
			"target":34962
		},
		{
			"buffer":0,
			"byteLength":28880,
			"byteOffset":57760,
			"target":34962
		},
		{
			"buffer":0,
			"byteLength":5592,
			"byteOffset":86640,
			"target":34963
		}
	],
	"buffers":[
		{
			"byteLength":92232,
			"uri":"data:application/octet-stream;base64,"
		}
	]
}
