{
	"asset":{
		"generator":"Khronos glTF Blender I/O v3.6.28",
		"version":"2.0"
	},
	"scene":0,
	"scenes":[
		{
			"extras":{
				"aad_props":{},
				"b_settings":1,
				"b_joystick":1,
				"b_cubemap":1,
				"b_show_env_sky":0,
				"b_cubemap_background":1,
				"b_cast_shadows":1,
				"b_use_default_lights":1,
				"b_renderer":1,
				"b_aa":1,
				"b_physicallyCorrectLights":1,
				"b_player":0,
				"b_raycast":1,
				"b_interactive":0,
				"b_export":1,
				"export_path":"/Users/gregoryvershbow/Documents/a-frame/class1/",
				"s_output":"exporting..."
			},
			"name":"Scene",
			"nodes":[
				0
			]
		}
	],
	"nodes":[
		{
			"extras":{
				"conform_object":{},
				"AFRAME_ANIMATION":"property: rotation; to: 0 360 0; loop: true; dur: 10000"
			},
			"mesh":0,
			"name":"Low_Animal.002",
			"scale":[
				0.6959933042526245,
				0.6959933042526245,
				0.6959933042526245
			]
		}
	],
	"materials":[
		{
			"doubleSided":true,
			"name":"Material.004",
			"pbrMetallicRoughness":{
				"baseColorFactor":[
					0.39181679487228394,
					0.13498210906982422,
					0.0016158821526914835,
					1
				],
				"metallicFactor":0,
				"roughnessFactor":0.5
			}
		}
	],
	"meshes":[
		{
			"name":"Plane.002",
			"primitives":[
				{
					"attributes":{
						"POSITION":0,
						"NORMAL":1,
						"TEXCOORD_0":2,
						"TANGENT":3
					},
					"indices":4,
					"material":0
				}
			]
		}
	],
	"accessors":[
		{
			"bufferView":0,
			"componentType":5126,
			"count":1382,
			"max":[
				2.3705408573150635,
				2.8705363273620605,
				0.4361872673034668
			],
			"min":[
				-2.345629930496216,
				-1.956539273262024,
				-0.4361879229545593
			],
			"type":"VEC3"
		},
		{
			"bufferView":1,
			"componentType":5126,
			"count":1382,
			"type":"VEC3"
		},
		{
			"bufferView":2,
			"componentType":5126,
			"count":1382,
			"type":"VEC2"
		},
		{
			"bufferView":3,
			"componentType":5126,
			"count":1382,
			"type":"VEC4"
		},
		{
			"bufferView":4,
			"componentType":5123,
			"count":2304,
			"type":"SCALAR"
		}
	],
	"bufferViews":[
		{
			"buffer":0,
			"byteLength":16584,
			"byteOffset":0,
			"target":34962
		},
		{
			"buffer":0,
			"byteLength":16584,
			"byteOffset":16584,
			"target":34962
		},
		{
			"buffer":0,
			"byteLength":11056,
			"byteOffset":33168,
			"target":34962
		},
		{
			"buffer":0,
			"byteLength":22112,
			"byteOffset":44224,
			"target":34962
		},
		{
			"buffer":0,
			"byteLength":4608,
			"byteOffset":66336,
			"target":34963
		}
	],
	"buffers":[
		{
			"byteLength":70944,
			"uri":"data:application/octet-stream;base64,"
		}
	]
}
