{
	"asset":{
		"generator":"Khronos glTF Blender I/O v3.6.28",
		"version":"2.0"
	},
	"scene":0,
	"scenes":[
		{
			"extras":{
				"aad_props":{},
				"b_settings":1,
				"b_joystick":1,
				"b_cubemap":1,
				"b_show_env_sky":0,
				"b_cubemap_background":1,
				"b_cast_shadows":1,
				"b_use_default_lights":1,
				"b_renderer":1,
				"b_aa":1,
				"b_physicallyCorrectLights":1,
				"b_player":0,
				"b_raycast":1,
				"b_interactive":0,
				"b_export":1,
				"export_path":"/Users/gregoryvershbow/Documents/a-frame/class1/",
				"s_output":"exporting..."
			},
			"name":"Scene",
			"nodes":[
				0
			]
		}
	],
	"nodes":[
		{
			"extras":{
				"conform_object":{},
				"AFRAME_ANIMATION":"property: rotation; to: 0 360 0; loop: true; dur: 10000"
			},
			"mesh":0,
			"name":"Low_Animal.004",
			"scale":[
				2.216736316680908,
				2.216736316680908,
				2.216736316680908
			]
		}
	],
	"materials":[
		{
			"doubleSided":true,
			"name":"EyesNose",
			"pbrMetallicRoughness":{
				"baseColorFactor":[
					0,
					0,
					0,
					1
				],
				"metallicFactor":0,
				"roughnessFactor":0.5
			}
		},
		{
			"doubleSided":true,
			"name":"FurLight",
			"pbrMetallicRoughness":{
				"baseColorFactor":[
					0.800000011920929,
					0.800000011920929,
					0.800000011920929,
					1
				],
				"metallicFactor":0,
				"roughnessFactor":0.5
			}
		},
		{
			"doubleSided":true,
			"name":"FurTop",
			"pbrMetallicRoughness":{
				"baseColorFactor":[
					0.5971985459327698,
					0.40197813510894775,
					0.2232281118631363,
					1
				],
				"metallicFactor":0,
				"roughnessFactor":0.5
			}
		}
	],
	"meshes":[
		{
			"name":"Plane.004",
			"primitives":[
				{
					"attributes":{
						"POSITION":0,
						"NORMAL":1,
						"TEXCOORD_0":2,
						"TANGENT":3
					},
					"indices":4,
					"material":0
				},
				{
					"attributes":{
						"POSITION":5,
						"NORMAL":6,
						"TEXCOORD_0":7,
						"TANGENT":8
					},
					"indices":9,
					"material":1
				},
				{
					"attributes":{
						"POSITION":10,
						"NORMAL":11,
						"TEXCOORD_0":12,
						"TANGENT":13
					},
					"indices":14,
					"material":2
				}
			]
		}
	],
	"accessors":[
		{
			"bufferView":0,
			"componentType":5126,
			"count":50,
			"max":[
				0.13770820200443268,
				0.39238569140434265,
				-0.7696725130081177
			],
			"min":[
				-0.1377081423997879,
				0.20031677186489105,
				-0.9571027159690857
			],
			"type":"VEC3"
		},
		{
			"bufferView":1,
			"componentType":5126,
			"count":50,
			"type":"VEC3"
		},
		{
			"bufferView":2,
			"componentType":5126,
			"count":50,
			"type":"VEC2"
		},
		{
			"bufferView":3,
			"componentType":5126,
			"count":50,
			"type":"VEC4"
		},
		{
			"bufferView":4,
			"componentType":5123,
			"count":72,
			"type":"SCALAR"
		},
		{
			"bufferView":5,
			"componentType":5126,
			"count":108,
			"max":[
				0.29265546798706055,
				0.7053802013397217,
				0.6459673047065735
			],
			"min":[
				-0.29265546798706055,
				-0.11849181354045868,
				-0.95090252161026
			],
			"type":"VEC3"
		},
		{
			"bufferView":6,
			"componentType":5126,
			"count":108,
			"type":"VEC3"
		},
		{
			"bufferView":7,
			"componentType":5126,
			"count":108,
			"type":"VEC2"
		},
		{
			"bufferView":8,
			"componentType":5126,
			"count":108,
			"type":"VEC4"
		},
		{
			"bufferView":9,
			"componentType":5123,
			"count":156,
			"type":"SCALAR"
		},
		{
			"bufferView":10,
			"componentType":5126,
			"count":939,
			"max":[
				0.29265546798706055,
				0.7053802013397217,
				1.0364362001419067
			],
			"min":[
				-0.29265546798706055,
				-0.5576143264770508,
				-0.9571027159690857
			],
			"type":"VEC3"
		},
		{
			"bufferView":11,
			"componentType":5126,
			"count":939,
			"type":"VEC3"
		},
		{
			"bufferView":12,
			"componentType":5126,
			"count":939,
			"type":"VEC2"
		},
		{
			"bufferView":13,
			"componentType":5126,
			"count":939,
			"type":"VEC4"
		},
		{
			"bufferView":14,
			"componentType":5123,
			"count":1404,
			"type":"SCALAR"
		}
	],
	"bufferViews":[
		{
			"buffer":0,
			"byteLength":600,
			"byteOffset":0,
			"target":34962
		},
		{
			"buffer":0,
			"byteLength":600,
			"byteOffset":600,
			"target":34962
		},
		{
			"buffer":0,
			"byteLength":400,
			"byteOffset":1200,
			"target":34962
		},
		{
			"buffer":0,
			"byteLength":800,
			"byteOffset":1600,
			"target":34962
		},
		{
			"buffer":0,
			"byteLength":144,
			"byteOffset":2400,
			"target":34963
		},
		{
			"buffer":0,
			"byteLength":1296,
			"byteOffset":2544,
			"target":34962
		},
		{
			"buffer":0,
			"byteLength":1296,
			"byteOffset":3840,
			"target":34962
		},
		{
			"buffer":0,
			"byteLength":864,
			"byteOffset":5136,
			"target":34962
		},
		{
			"buffer":0,
			"byteLength":1728,
			"byteOffset":6000,
			"target":34962
		},
		{
			"buffer":0,
			"byteLength":312,
			"byteOffset":7728,
			"target":34963
		},
		{
			"buffer":0,
			"byteLength":11268,
			"byteOffset":8040,
			"target":34962
		},
		{
			"buffer":0,
			"byteLength":11268,
			"byteOffset":19308,
			"target":34962
		},
		{
			"buffer":0,
			"byteLength":7512,
			"byteOffset":30576,
			"target":34962
		},
		{
			"buffer":0,
			"byteLength":15024,
			"byteOffset":38088,
			"target":34962
		},
		{
			"buffer":0,
			"byteLength":2808,
			"byteOffset":53112,
			"target":34963
		}
	],
	"buffers":[
		{
			"byteLength":55920,
			"uri":"data:application/octet-stream;base64,"
		}
	]
}
