{
	"asset":{
		"generator":"Khronos glTF Blender I/O v3.6.28",
		"version":"2.0"
	},
	"scene":0,
	"scenes":[
		{
			"extras":{
				"aad_props":{},
				"b_settings":1,
				"b_joystick":1,
				"b_cubemap":1,
				"b_show_env_sky":0,
				"b_cubemap_background":1,
				"b_cast_shadows":1,
				"b_use_default_lights":1,
				"b_renderer":1,
				"b_aa":1,
				"b_physicallyCorrectLights":1,
				"b_player":0,
				"b_raycast":1,
				"b_interactive":0,
				"b_export":1,
				"export_path":"/Users/gregoryvershbow/Documents/a-frame/class1/",
				"s_output":"exporting..."
			},
			"name":"Scene",
			"nodes":[
				0
			]
		}
	],
	"nodes":[
		{
			"extras":{
				"conform_object":{},
				"AFRAME_ANIMATION":"property: rotation; to: 0 360 0; loop: true; dur: 10000"
			},
			"mesh":0,
			"name":"Low_Animal.001",
			"scale":[
				0.46526503562927246,
				0.46526503562927246,
				0.46526503562927246
			]
		}
	],
	"materials":[
		{
			"doubleSided":true,
			"name":"Material.002",
			"pbrMetallicRoughness":{
				"baseColorFactor":[
					0.8000473976135254,
					0.6972800493240356,
					0.4370041489601135,
					1
				],
				"roughnessFactor":0.2222222089767456
			}
		}
	],
	"meshes":[
		{
			"name":"Plane",
			"primitives":[
				{
					"attributes":{
						"POSITION":0,
						"NORMAL":1,
						"TEXCOORD_0":2,
						"TANGENT":3
					},
					"indices":4,
					"material":0
				}
			]
		}
	],
	"accessors":[
		{
			"bufferView":0,
			"componentType":5126,
			"count":586,
			"max":[
				0.6898183226585388,
				2.5224077701568604,
				5.313044548034668
			],
			"min":[
				-0.7046671509742737,
				-2.3752615451812744,
				-4.9711785316467285
			],
			"type":"VEC3"
		},
		{
			"bufferView":1,
			"componentType":5126,
			"count":586,
			"type":"VEC3"
		},
		{
			"bufferView":2,
			"componentType":5126,
			"count":586,
			"type":"VEC2"
		},
		{
			"bufferView":3,
			"componentType":5126,
			"count":586,
			"type":"VEC4"
		},
		{
			"bufferView":4,
			"componentType":5123,
			"count":876,
			"type":"SCALAR"
		}
	],
	"bufferViews":[
		{
			"buffer":0,
			"byteLength":7032,
			"byteOffset":0,
			"target":34962
		},
		{
			"buffer":0,
			"byteLength":7032,
			"byteOffset":7032,
			"target":34962
		},
		{
			"buffer":0,
			"byteLength":4688,
			"byteOffset":14064,
			"target":34962
		},
		{
			"buffer":0,
			"byteLength":9376,
			"byteOffset":18752,
			"target":34962
		},
		{
			"buffer":0,
			"byteLength":1752,
			"byteOffset":28128,
			"target":34963
		}
	],
	"buffers":[
		{
			"byteLength":29880,
			"uri":"data:application/octet-stream;base64,"
		}
	]
}
