{
	"asset":{
		"generator":"Khronos glTF Blender I/O v3.6.28",
		"version":"2.0"
	},
	"scene":0,
	"scenes":[
		{
			"extras":{
				"aad_props":{},
				"b_settings":1,
				"b_joystick":1,
				"b_cubemap":1,
				"b_show_env_sky":0,
				"b_cubemap_background":1,
				"b_cast_shadows":1,
				"b_use_default_lights":1,
				"b_renderer":1,
				"b_aa":1,
				"b_physicallyCorrectLights":1,
				"b_player":0,
				"b_raycast":1,
				"b_interactive":0,
				"b_export":1,
				"export_path":"/Users/gregoryvershbow/Documents/a-frame/class1/",
				"s_output":"exporting..."
			},
			"name":"Scene",
			"nodes":[
				0
			]
		}
	],
	"nodes":[
		{
			"extras":{
				"ant_landscape":{},
				"conform_object":{},
				"AFRAME_ANIMATION":"property: rotation; to: 0 360 0; loop: true; dur: 10000"
			},
			"mesh":0,
			"name":"Sphere.001",
			"rotation":[
				0.25645822286605835,
				0,
				0,
				0.9665554165840149
			],
			"scale":[
				0.43974363803863525,
				0.4397437274456024,
				0.4397437274456024
			]
		}
	],
	"materials":[
		{
			"doubleSided":true,
			"name":"Material",
			"pbrMetallicRoughness":{
				"baseColorFactor":[
					0,
					0,
					0,
					1
				],
				"metallicFactor":0
			}
		},
		{
			"doubleSided":true,
			"emissiveFactor":[
				0,
				1,
				0.05800049006938934
			],
			"name":"Material.006",
			"pbrMetallicRoughness":{
				"baseColorFactor":[
					0,
					0,
					0,
					1
				]
			}
		}
	],
	"meshes":[
		{
			"name":"Sphere.001",
			"primitives":[
				{
					"attributes":{
						"POSITION":0,
						"NORMAL":1,
						"TEXCOORD_0":2
					},
					"indices":3,
					"material":0
				},
				{
					"attributes":{
						"POSITION":4,
						"NORMAL":5,
						"TEXCOORD_0":6
					},
					"indices":7,
					"material":1
				}
			]
		}
	],
	"accessors":[
		{
			"bufferView":0,
			"componentType":5126,
			"count":1447,
			"max":[
				4.913575649261475,
				3.204669237136841,
				3.30261492729187
			],
			"min":[
				-4.913575649261475,
				-1.9870660305023193,
				-3.0231239795684814
			],
			"type":"VEC3"
		},
		{
			"bufferView":1,
			"componentType":5126,
			"count":1447,
			"type":"VEC3"
		},
		{
			"bufferView":2,
			"componentType":5126,
			"count":1447,
			"type":"VEC2"
		},
		{
			"bufferView":3,
			"componentType":5123,
			"count":2424,
			"type":"SCALAR"
		},
		{
			"bufferView":4,
			"componentType":5126,
			"count":11968,
			"max":[
				4.925457000732422,
				3.2190020084381104,
				3.3170394897460938
			],
			"min":[
				-4.925457000732422,
				-1.9971694946289062,
				-3.0386593341827393
			],
			"type":"VEC3"
		},
		{
			"bufferView":5,
			"componentType":5126,
			"count":11968,
			"type":"VEC3"
		},
		{
			"bufferView":6,
			"componentType":5126,
			"count":11968,
			"type":"VEC2"
		},
		{
			"bufferView":7,
			"componentType":5123,
			"count":17952,
			"type":"SCALAR"
		}
	],
	"bufferViews":[
		{
			"buffer":0,
			"byteLength":17364,
			"byteOffset":0,
			"target":34962
		},
		{
			"buffer":0,
			"byteLength":17364,
			"byteOffset":17364,
			"target":34962
		},
		{
			"buffer":0,
			"byteLength":11576,
			"byteOffset":34728,
			"target":34962
		},
		{
			"buffer":0,
			"byteLength":4848,
			"byteOffset":46304,
			"target":34963
		},
		{
			"buffer":0,
			"byteLength":143616,
			"byteOffset":51152,
			"target":34962
		},
		{
			"buffer":0,
			"byteLength":143616,
			"byteOffset":194768,
			"target":34962
		},
		{
			"buffer":0,
			"byteLength":95744,
			"byteOffset":338384,
			"target":34962
		},
		{
			"buffer":0,
			"byteLength":35904,
			"byteOffset":434128,
			"target":34963
		}
	],
	"buffers":[
		{
			"byteLength":470032,
			"uri":"data:application/octet-stream;base64,"
		}
	]
}
